# xmcd
#
# Track frame offsets:
# 150
# 16419
# 31932
# 51137
# 65060
# 81673
# 97492
# 115897
# 133649
# 152718
# 174660
# 191371
# 205309
#
# Disc length: 3019 seconds
#
#
# Revision: 1
# Processed by: cddbd v1.5.2PL0 Copyright (c) Steve Scherf et al.
# Submitted via: MfcCDDB 1.28 
#
DISCID=bc0bc90d
DTITLE=Unknown Artist bc0bc90d - Unknown Album bc0bc90d
DYEAR=2000
DGENRE=Unknown Genre bc0bc90d
TTITLE0=Track01
TTITLE1=Track02
TTITLE2=Track03
TTITLE3=Track04
TTITLE4=Track05
TTITLE5=Track06
TTITLE6=Track07
TTITLE7=Track08
TTITLE8=Track09
TTITLE9=Track10
TTITLE10=Track11
TTITLE11=Track12
TTITLE12=Track13
EXTD=
EXTT0=
EXTT1=
EXTT2=
EXTT3=
EXTT4=
EXTT5=
EXTT6=
EXTT7=
EXTT8=
EXTT9=
EXTT10=
EXTT11=
EXTT12=
PLAYORDER=
